<svg xmlns="http://www.w3.org/2000/svg" width="106.86" height="122.392" viewBox="0 0 106.86 122.392">
  <g id="Group_1236" data-name="Group 1236" transform="translate(-1090.095 -1382.107)">
    <g id="Group_1230" data-name="Group 1230" transform="translate(-9.573 -30.554)">
      <g id="noun_internet_2331738_1_" data-name="noun_internet_2331738 (1)" transform="translate(1100.168 1413.161)">
        <path id="Path_33340" data-name="Path 33340" d="M110.343,60.172A50.242,50.242,0,0,0,62.3,10H58.29a50.219,50.219,0,0,0-.5,100.343c.5,0,1,.125,1.38.125h2.007a4.7,4.7,0,0,0,1.38-.125A50.371,50.371,0,0,0,110.343,60.172Zm-95.2,2.509H31.448a84.4,84.4,0,0,0,3.136,21.072,53.744,53.744,0,0,0-9.783,4.39A44.78,44.78,0,0,1,15.143,62.68Zm9.533-30.354a63.934,63.934,0,0,0,9.783,4.39,83.524,83.524,0,0,0-3.136,21.072H15.017A45.9,45.9,0,0,1,24.675,32.326ZM105.2,57.663H89.02a88.472,88.472,0,0,0-3.01-20.7A56.136,56.136,0,0,0,96.044,32.7,44.877,44.877,0,0,1,105.2,57.663Zm-21.2,0H62.68V40.73a87.273,87.273,0,0,0,18.438-2.258A82.117,82.117,0,0,1,84,57.663ZM62.68,35.713V15.143c6.773,1,12.919,8.027,16.807,18.438A80,80,0,0,1,62.68,35.713Zm-5.017-20.57v20.57a86.385,86.385,0,0,1-16.682-2.258C44.869,23.045,50.89,16.021,57.663,15.143Zm0,25.587V57.663H36.34A78.956,78.956,0,0,1,39.35,38.1,85.958,85.958,0,0,0,57.663,40.73ZM36.34,62.68H57.663V79.613A85.958,85.958,0,0,0,39.35,82.247,78.956,78.956,0,0,1,36.34,62.68ZM57.663,84.756v20.57c-6.773-.878-12.794-7.9-16.682-18.187A70.422,70.422,0,0,1,57.663,84.756ZM62.68,105.2V84.63a80,80,0,0,1,16.807,2.132C75.6,97.173,69.453,104.2,62.68,105.2Zm0-25.587V62.68H84A84.252,84.252,0,0,1,81.118,82,87.216,87.216,0,0,0,62.68,79.613ZM89.02,62.68h16.306A45.075,45.075,0,0,1,96.17,87.515,67.03,67.03,0,0,0,86.135,83.25,92.44,92.44,0,0,0,89.02,62.68Zm3.637-33.74a63.187,63.187,0,0,1-8.278,3.387,47.541,47.541,0,0,0-7.9-14.173A44.2,44.2,0,0,1,92.658,28.94ZM43.866,18.027a44.084,44.084,0,0,0-7.777,13.8,67.086,67.086,0,0,1-8.027-3.387A45.084,45.084,0,0,1,43.866,18.027ZM28.062,91.9a46.776,46.776,0,0,1,8.027-3.387,44.084,44.084,0,0,0,7.777,13.8A45.085,45.085,0,0,1,28.062,91.9Zm48.416,10.411a44.942,44.942,0,0,0,7.9-14.173,49.609,49.609,0,0,1,8.278,3.387A47.558,47.558,0,0,1,76.477,102.316Z" transform="translate(-10 -10)" stroke="#fff" stroke-width="1"/>
      </g>
      <g id="noun_Cursor_740128" transform="translate(1160.457 1483.882) rotate(-13)">
        <g id="Group_1229" data-name="Group 1229" transform="translate(0 0)">
          <path id="Path_33342" data-name="Path 33342" d="M5.835,0,0,37.327l9.406-5.5,4.2,15.253,9.337-2.876L19.8,29.268H30.272L25.816,23.93Z" transform="translate(2.381 3.157)" fill="#fff"/>
          <path id="Path_33341" data-name="Path 33341" d="M7.548.008a1.377,1.377,0,0,0-1.2,1.162L.017,41.365a1.377,1.377,0,0,0,2.066,1.4l8.844-5.4,3.615,13.513a1.377,1.377,0,0,0,1.7.968l9.317-2.5a1.377,1.377,0,0,0,.968-1.678L22.89,34.156l10.372.237a1.377,1.377,0,0,0,1.1-2.238L8.775.524A1.377,1.377,0,0,0,7.548.008ZM8.6,4.656,30.357,31.574l-9.231-.215a1.377,1.377,0,0,0-1.356,1.721l3.744,13.965-6.649,1.786L13.121,34.866a1.377,1.377,0,0,0-2.066-.818L3.2,38.847,8.6,4.656Z" fill="#ffde4b" stroke="#ffde4b" stroke-width="1"/>
        </g>
      </g>
    </g>
  </g>
</svg>
